<?xml version="1.0" standalone="no"?>
<!DOCTYPE svg PUBLIC "-//W3C//DTD SVG 20010904//EN"
 "http://www.w3.org/TR/2001/REC-SVG-20010904/DTD/svg10.dtd">
<svg version="1.0" xmlns="http://www.w3.org/2000/svg"
 width="700.000000pt" height="700.000000pt" viewBox="0 0 700.000000 700.000000"
 preserveAspectRatio="xMidYMid meet">
<metadata>
Created by potrace 1.11, written by Peter Selinger 2001-2013
</metadata>
<g transform="translate(0.000000,700.000000) scale(0.100000,-0.100000)"
fill="#000000" stroke="none">
<path d="M1890 6649 c-19 -4 -57 -10 -83 -13 -71 -9 -231 -51 -320 -85 -391
-152 -685 -398 -904 -757 -95 -156 -192 -423 -219 -599 -4 -27 -9 -57 -10 -65
-2 -8 -6 -49 -9 -90 -9 -110 -8 -2926 0 -2993 4 -32 11 -60 16 -63 5 -3 9 -13
9 -23 0 -20 53 -95 95 -133 17 -15 55 -39 85 -55 49 -24 66 -27 150 -27 98 0
135 12 222 71 25 18 79 84 105 129 32 58 34 139 37 1614 1 811 6 1489 9 1505
49 207 91 308 185 440 46 64 162 180 232 233 303 225 738 260 1075 87 249
-128 445 -356 523 -610 21 -68 25 -87 42 -190 4 -27 8 -716 9 -1530 1 -814 3
-1505 6 -1535 44 -613 441 -1189 1000 -1450 266 -124 479 -169 780 -164 105 1
197 4 205 7 8 2 38 7 65 11 415 63 852 328 1105 671 25 33 47 62 50 65 14 12
121 202 148 260 63 140 123 331 137 439 3 20 7 47 10 61 13 64 15 258 15 1620
1 1281 -1 1462 -15 1513 -55 211 -284 321 -487 236 -111 -47 -193 -152 -213
-272 -3 -22 -6 -690 -7 -1485 0 -1172 -3 -1463 -14 -1532 -68 -422 -380 -755
-799 -852 -114 -26 -324 -28 -432 -4 -272 60 -506 218 -655 442 -81 122 -126
231 -158 388 -17 83 -18 179 -19 1580 -1 820 -3 1518 -6 1551 -5 78 -29 213
-55 311 -127 488 -492 924 -950 1136 -84 39 -310 121 -310 113 0 -3 -11 0 -25
5 -14 5 -69 17 -122 26 -106 19 -441 27 -503 13z"/>
</g>
</svg>
